<mxfile host="Electron" agent="Mozilla/5.0 (X11; Linux x86_64) AppleWebKit/537.36 (KHTML, like Gecko) draw.io/26.1.1 Chrome/134.0.6998.205 Electron/35.6.0 Safari/537.36" version="26.1.1">
  <diagram name="Page-1" id="1F0ipDezWaWUv_pM_gFs">
    <mxGraphModel dx="1235" dy="728" grid="1" gridSize="10" guides="1" tooltips="1" connect="1" arrows="1" fold="1" page="1" pageScale="1" pageWidth="850" pageHeight="1100" math="0" shadow="0">
      <root>
        <mxCell id="0" />
        <mxCell id="1" parent="0" />
        <mxCell id="nA5XWGOfh5RlGt8984BV-156" value="" style="rounded=0;whiteSpace=wrap;html=1;fillColor=none;strokeColor=none;" parent="1" vertex="1">
          <mxGeometry x="90" y="190" width="1710" height="690" as="geometry" />
        </mxCell>
        <mxCell id="nA5XWGOfh5RlGt8984BV-102" style="edgeStyle=orthogonalEdgeStyle;rounded=0;orthogonalLoop=1;jettySize=auto;html=1;strokeWidth=2;endArrow=none;startFill=0;strokeColor=#0000CC;" parent="1" source="1lonX3dEKTjPdYe6L-kD-28" target="1lonX3dEKTjPdYe6L-kD-3" edge="1">
          <mxGeometry relative="1" as="geometry" />
        </mxCell>
        <mxCell id="1lonX3dEKTjPdYe6L-kD-28" value="" style="sketch=0;outlineConnect=0;gradientColor=none;fontColor=#545B64;strokeColor=none;fillColor=#000000;dashed=0;verticalLabelPosition=bottom;verticalAlign=top;align=center;html=1;fontSize=12;fontStyle=0;aspect=fixed;shape=mxgraph.aws4.illustration_users;pointerEvents=1;spacingTop=2;spacingRight=0;perimeterSpacing=6;" parent="1" vertex="1">
          <mxGeometry x="190" y="395" width="70" height="70" as="geometry" />
        </mxCell>
        <mxCell id="1lonX3dEKTjPdYe6L-kD-110" value="" style="endArrow=none;html=1;rounded=0;strokeWidth=2;strokeColor=#0000CC;" parent="1" edge="1">
          <mxGeometry width="50" height="50" relative="1" as="geometry">
            <mxPoint x="230.25" y="234.83000000000004" as="sourcePoint" />
            <mxPoint x="270.25" y="234.83000000000004" as="targetPoint" />
          </mxGeometry>
        </mxCell>
        <mxCell id="1lonX3dEKTjPdYe6L-kD-111" value="Data Path" style="text;html=1;align=right;verticalAlign=middle;whiteSpace=wrap;rounded=0;" parent="1" vertex="1">
          <mxGeometry x="110" y="220" width="110" height="30" as="geometry" />
        </mxCell>
        <mxCell id="1lonX3dEKTjPdYe6L-kD-112" value="" style="endArrow=none;html=1;rounded=0;strokeWidth=2;strokeColor=#FF0000;dashed=1;dashPattern=1 1;edgeStyle=orthogonalEdgeStyle;" parent="1" edge="1">
          <mxGeometry width="50" height="50" relative="1" as="geometry">
            <mxPoint x="230.25" y="264.83000000000004" as="sourcePoint" />
            <mxPoint x="270.25" y="264.83000000000004" as="targetPoint" />
          </mxGeometry>
        </mxCell>
        <mxCell id="1lonX3dEKTjPdYe6L-kD-113" value="Control Path" style="text;html=1;align=right;verticalAlign=middle;whiteSpace=wrap;rounded=0;" parent="1" vertex="1">
          <mxGeometry x="110" y="250" width="110" height="30" as="geometry" />
        </mxCell>
        <mxCell id="1lonX3dEKTjPdYe6L-kD-118" value="Management Path" style="text;html=1;align=right;verticalAlign=middle;whiteSpace=wrap;rounded=0;" parent="1" vertex="1">
          <mxGeometry x="110" y="280" width="110" height="30" as="geometry" />
        </mxCell>
        <mxCell id="1lonX3dEKTjPdYe6L-kD-119" value="" style="endArrow=none;html=1;rounded=0;strokeWidth=2;strokeColor=#00CC00;endFill=1;startArrow=none;startFill=0;dashed=1;dashPattern=1 1;" parent="1" edge="1">
          <mxGeometry width="50" height="50" relative="1" as="geometry">
            <mxPoint x="230.25" y="294.80000000000007" as="sourcePoint" />
            <mxPoint x="270.25" y="294.80000000000007" as="targetPoint" />
          </mxGeometry>
        </mxCell>
        <mxCell id="nA5XWGOfh5RlGt8984BV-21" value="Kubernetes Control Plane" style="rounded=1;whiteSpace=wrap;html=1;fontSize=14;fillColor=#0050ef;strokeColor=#001DBC;fontColor=#ffffff;fontStyle=1" parent="1" vertex="1">
          <mxGeometry x="330" y="235" width="280" height="60" as="geometry" />
        </mxCell>
        <mxCell id="nA5XWGOfh5RlGt8984BV-59" value="" style="group" parent="1" vertex="1" connectable="0">
          <mxGeometry x="290" y="318" width="100" height="235" as="geometry" />
        </mxCell>
        <mxCell id="nA5XWGOfh5RlGt8984BV-15" value="" style="group;flipH=1;" parent="nA5XWGOfh5RlGt8984BV-59" vertex="1" connectable="0">
          <mxGeometry y="155" width="100" height="80" as="geometry" />
        </mxCell>
        <mxCell id="nA5XWGOfh5RlGt8984BV-12" value="" style="rounded=1;whiteSpace=wrap;html=1;fontSize=14;fillColor=#dae8fc;strokeColor=#6c8ebf;" parent="nA5XWGOfh5RlGt8984BV-15" vertex="1">
          <mxGeometry x="20" width="80" height="60" as="geometry" />
        </mxCell>
        <mxCell id="nA5XWGOfh5RlGt8984BV-13" value="" style="rounded=1;whiteSpace=wrap;html=1;fontSize=14;fillColor=#dae8fc;strokeColor=#6c8ebf;" parent="nA5XWGOfh5RlGt8984BV-15" vertex="1">
          <mxGeometry x="10" y="10" width="80" height="60" as="geometry" />
        </mxCell>
        <mxCell id="nA5XWGOfh5RlGt8984BV-14" value="Application" style="rounded=1;whiteSpace=wrap;html=1;fontSize=14;fillColor=#dae8fc;strokeColor=#6c8ebf;" parent="nA5XWGOfh5RlGt8984BV-15" vertex="1">
          <mxGeometry y="20" width="80" height="60" as="geometry" />
        </mxCell>
        <mxCell id="nA5XWGOfh5RlGt8984BV-18" style="edgeStyle=orthogonalEdgeStyle;rounded=0;orthogonalLoop=1;jettySize=auto;html=1;endArrow=none;startFill=0;strokeColor=#0000CC;strokeWidth=2;" parent="nA5XWGOfh5RlGt8984BV-59" source="nA5XWGOfh5RlGt8984BV-13" target="1lonX3dEKTjPdYe6L-kD-3" edge="1">
          <mxGeometry relative="1" as="geometry" />
        </mxCell>
        <mxCell id="nA5XWGOfh5RlGt8984BV-49" style="edgeStyle=orthogonalEdgeStyle;rounded=0;orthogonalLoop=1;jettySize=auto;html=1;strokeColor=#FF0000;endArrow=none;startFill=0;dashed=1;dashPattern=1 2;strokeWidth=2;" parent="nA5XWGOfh5RlGt8984BV-59" source="nA5XWGOfh5RlGt8984BV-19" target="1lonX3dEKTjPdYe6L-kD-3" edge="1">
          <mxGeometry relative="1" as="geometry" />
        </mxCell>
        <mxCell id="nA5XWGOfh5RlGt8984BV-19" value="Prober" style="rounded=1;whiteSpace=wrap;html=1;fontSize=14;fillColor=#ffe6cc;strokeColor=#d79b00;" parent="nA5XWGOfh5RlGt8984BV-59" vertex="1">
          <mxGeometry x="10" width="80" height="60" as="geometry" />
        </mxCell>
        <mxCell id="1lonX3dEKTjPdYe6L-kD-3" value="Site A" style="rounded=1;whiteSpace=wrap;html=1;fontSize=14;fillColor=#fff2cc;strokeColor=#d6b656;" parent="nA5XWGOfh5RlGt8984BV-59" vertex="1">
          <mxGeometry x="10" y="82" width="80" height="60" as="geometry" />
        </mxCell>
        <mxCell id="nA5XWGOfh5RlGt8984BV-69" value="" style="group" parent="1" vertex="1" connectable="0">
          <mxGeometry x="290.25" y="570" width="100" height="235" as="geometry" />
        </mxCell>
        <mxCell id="nA5XWGOfh5RlGt8984BV-70" value="" style="group;flipH=1;" parent="nA5XWGOfh5RlGt8984BV-69" vertex="1" connectable="0">
          <mxGeometry y="155" width="100" height="80" as="geometry" />
        </mxCell>
        <mxCell id="nA5XWGOfh5RlGt8984BV-71" value="" style="rounded=1;whiteSpace=wrap;html=1;fontSize=14;fillColor=#dae8fc;strokeColor=#6c8ebf;" parent="nA5XWGOfh5RlGt8984BV-70" vertex="1">
          <mxGeometry x="20" width="80" height="60" as="geometry" />
        </mxCell>
        <mxCell id="nA5XWGOfh5RlGt8984BV-72" value="" style="rounded=1;whiteSpace=wrap;html=1;fontSize=14;fillColor=#dae8fc;strokeColor=#6c8ebf;" parent="nA5XWGOfh5RlGt8984BV-70" vertex="1">
          <mxGeometry x="10" y="10" width="80" height="60" as="geometry" />
        </mxCell>
        <mxCell id="nA5XWGOfh5RlGt8984BV-73" value="Application" style="rounded=1;whiteSpace=wrap;html=1;fontSize=14;fillColor=#dae8fc;strokeColor=#6c8ebf;" parent="nA5XWGOfh5RlGt8984BV-70" vertex="1">
          <mxGeometry y="20" width="80" height="60" as="geometry" />
        </mxCell>
        <mxCell id="nA5XWGOfh5RlGt8984BV-74" style="edgeStyle=orthogonalEdgeStyle;rounded=0;orthogonalLoop=1;jettySize=auto;html=1;endArrow=none;startFill=0;strokeColor=#0000CC;strokeWidth=2;" parent="nA5XWGOfh5RlGt8984BV-69" source="nA5XWGOfh5RlGt8984BV-72" target="nA5XWGOfh5RlGt8984BV-77" edge="1">
          <mxGeometry relative="1" as="geometry" />
        </mxCell>
        <mxCell id="nA5XWGOfh5RlGt8984BV-75" style="edgeStyle=orthogonalEdgeStyle;rounded=0;orthogonalLoop=1;jettySize=auto;html=1;strokeColor=#FF0000;endArrow=none;startFill=0;dashed=1;dashPattern=1 2;strokeWidth=2;" parent="nA5XWGOfh5RlGt8984BV-69" source="nA5XWGOfh5RlGt8984BV-76" target="nA5XWGOfh5RlGt8984BV-77" edge="1">
          <mxGeometry relative="1" as="geometry" />
        </mxCell>
        <mxCell id="nA5XWGOfh5RlGt8984BV-76" value="Prober" style="rounded=1;whiteSpace=wrap;html=1;fontSize=14;fillColor=#ffe6cc;strokeColor=#d79b00;" parent="nA5XWGOfh5RlGt8984BV-69" vertex="1">
          <mxGeometry x="10" width="80" height="60" as="geometry" />
        </mxCell>
        <mxCell id="nA5XWGOfh5RlGt8984BV-77" value="Site B" style="rounded=1;whiteSpace=wrap;html=1;fontSize=14;fillColor=#fff2cc;strokeColor=#d6b656;" parent="nA5XWGOfh5RlGt8984BV-69" vertex="1">
          <mxGeometry x="10" y="82" width="80" height="60" as="geometry" />
        </mxCell>
        <mxCell id="nA5XWGOfh5RlGt8984BV-78" value="" style="group" parent="1" vertex="1" connectable="0">
          <mxGeometry x="560" y="318" width="100" height="235" as="geometry" />
        </mxCell>
        <mxCell id="nA5XWGOfh5RlGt8984BV-79" value="" style="group;flipH=1;" parent="nA5XWGOfh5RlGt8984BV-78" vertex="1" connectable="0">
          <mxGeometry y="155" width="100" height="80" as="geometry" />
        </mxCell>
        <mxCell id="nA5XWGOfh5RlGt8984BV-80" value="" style="rounded=1;whiteSpace=wrap;html=1;fontSize=14;fillColor=#dae8fc;strokeColor=#6c8ebf;" parent="nA5XWGOfh5RlGt8984BV-79" vertex="1">
          <mxGeometry x="20" width="80" height="60" as="geometry" />
        </mxCell>
        <mxCell id="nA5XWGOfh5RlGt8984BV-81" value="" style="rounded=1;whiteSpace=wrap;html=1;fontSize=14;fillColor=#dae8fc;strokeColor=#6c8ebf;" parent="nA5XWGOfh5RlGt8984BV-79" vertex="1">
          <mxGeometry x="10" y="10" width="80" height="60" as="geometry" />
        </mxCell>
        <mxCell id="nA5XWGOfh5RlGt8984BV-82" value="Application" style="rounded=1;whiteSpace=wrap;html=1;fontSize=14;fillColor=#dae8fc;strokeColor=#6c8ebf;" parent="nA5XWGOfh5RlGt8984BV-79" vertex="1">
          <mxGeometry y="20" width="80" height="60" as="geometry" />
        </mxCell>
        <mxCell id="nA5XWGOfh5RlGt8984BV-83" style="edgeStyle=orthogonalEdgeStyle;rounded=0;orthogonalLoop=1;jettySize=auto;html=1;endArrow=none;startFill=0;strokeColor=#0000CC;strokeWidth=2;" parent="nA5XWGOfh5RlGt8984BV-78" source="nA5XWGOfh5RlGt8984BV-81" target="nA5XWGOfh5RlGt8984BV-86" edge="1">
          <mxGeometry relative="1" as="geometry" />
        </mxCell>
        <mxCell id="nA5XWGOfh5RlGt8984BV-84" style="edgeStyle=orthogonalEdgeStyle;rounded=0;orthogonalLoop=1;jettySize=auto;html=1;strokeColor=#FF0000;endArrow=none;startFill=0;dashed=1;dashPattern=1 2;strokeWidth=2;" parent="nA5XWGOfh5RlGt8984BV-78" source="nA5XWGOfh5RlGt8984BV-85" target="nA5XWGOfh5RlGt8984BV-86" edge="1">
          <mxGeometry relative="1" as="geometry" />
        </mxCell>
        <mxCell id="nA5XWGOfh5RlGt8984BV-85" value="Prober" style="rounded=1;whiteSpace=wrap;html=1;fontSize=14;fillColor=#ffe6cc;strokeColor=#d79b00;" parent="nA5XWGOfh5RlGt8984BV-78" vertex="1">
          <mxGeometry x="10" width="80" height="60" as="geometry" />
        </mxCell>
        <mxCell id="nA5XWGOfh5RlGt8984BV-86" value="Site C" style="rounded=1;whiteSpace=wrap;html=1;fontSize=14;fillColor=#fff2cc;strokeColor=#d6b656;" parent="nA5XWGOfh5RlGt8984BV-78" vertex="1">
          <mxGeometry x="10" y="82" width="80" height="60" as="geometry" />
        </mxCell>
        <mxCell id="nA5XWGOfh5RlGt8984BV-87" value="" style="group" parent="1" vertex="1" connectable="0">
          <mxGeometry x="560.25" y="570" width="100" height="235" as="geometry" />
        </mxCell>
        <mxCell id="nA5XWGOfh5RlGt8984BV-88" value="" style="group;flipH=1;" parent="nA5XWGOfh5RlGt8984BV-87" vertex="1" connectable="0">
          <mxGeometry y="155" width="100" height="80" as="geometry" />
        </mxCell>
        <mxCell id="nA5XWGOfh5RlGt8984BV-89" value="" style="rounded=1;whiteSpace=wrap;html=1;fontSize=14;fillColor=#dae8fc;strokeColor=#6c8ebf;" parent="nA5XWGOfh5RlGt8984BV-88" vertex="1">
          <mxGeometry x="20" width="80" height="60" as="geometry" />
        </mxCell>
        <mxCell id="nA5XWGOfh5RlGt8984BV-90" value="" style="rounded=1;whiteSpace=wrap;html=1;fontSize=14;fillColor=#dae8fc;strokeColor=#6c8ebf;" parent="nA5XWGOfh5RlGt8984BV-88" vertex="1">
          <mxGeometry x="10" y="10" width="80" height="60" as="geometry" />
        </mxCell>
        <mxCell id="nA5XWGOfh5RlGt8984BV-91" value="Application" style="rounded=1;whiteSpace=wrap;html=1;fontSize=14;fillColor=#dae8fc;strokeColor=#6c8ebf;" parent="nA5XWGOfh5RlGt8984BV-88" vertex="1">
          <mxGeometry y="20" width="80" height="60" as="geometry" />
        </mxCell>
        <mxCell id="nA5XWGOfh5RlGt8984BV-92" style="edgeStyle=orthogonalEdgeStyle;rounded=0;orthogonalLoop=1;jettySize=auto;html=1;endArrow=none;startFill=0;strokeColor=#0000CC;strokeWidth=2;" parent="nA5XWGOfh5RlGt8984BV-87" source="nA5XWGOfh5RlGt8984BV-90" target="nA5XWGOfh5RlGt8984BV-95" edge="1">
          <mxGeometry relative="1" as="geometry" />
        </mxCell>
        <mxCell id="nA5XWGOfh5RlGt8984BV-93" style="edgeStyle=orthogonalEdgeStyle;rounded=0;orthogonalLoop=1;jettySize=auto;html=1;strokeColor=#FF0000;endArrow=none;startFill=0;dashed=1;dashPattern=1 2;strokeWidth=2;" parent="nA5XWGOfh5RlGt8984BV-87" source="nA5XWGOfh5RlGt8984BV-94" target="nA5XWGOfh5RlGt8984BV-95" edge="1">
          <mxGeometry relative="1" as="geometry" />
        </mxCell>
        <mxCell id="nA5XWGOfh5RlGt8984BV-94" value="Prober" style="rounded=1;whiteSpace=wrap;html=1;fontSize=14;fillColor=#ffe6cc;strokeColor=#d79b00;" parent="nA5XWGOfh5RlGt8984BV-87" vertex="1">
          <mxGeometry x="10" width="80" height="60" as="geometry" />
        </mxCell>
        <mxCell id="nA5XWGOfh5RlGt8984BV-95" value="Site D" style="rounded=1;whiteSpace=wrap;html=1;fontSize=14;fillColor=#fff2cc;strokeColor=#d6b656;" parent="nA5XWGOfh5RlGt8984BV-87" vertex="1">
          <mxGeometry x="10" y="82" width="80" height="60" as="geometry" />
        </mxCell>
        <mxCell id="nA5XWGOfh5RlGt8984BV-103" value="" style="sketch=0;outlineConnect=0;gradientColor=none;fontColor=#545B64;strokeColor=none;fillColor=#000000;dashed=0;verticalLabelPosition=bottom;verticalAlign=top;align=center;html=1;fontSize=12;fontStyle=0;aspect=fixed;shape=mxgraph.aws4.illustration_users;pointerEvents=1;spacingTop=2;spacingRight=0;perimeterSpacing=6;" parent="1" vertex="1">
          <mxGeometry x="190" y="647" width="70" height="70" as="geometry" />
        </mxCell>
        <mxCell id="nA5XWGOfh5RlGt8984BV-105" value="" style="sketch=0;outlineConnect=0;gradientColor=none;fontColor=#545B64;strokeColor=none;fillColor=#000000;dashed=0;verticalLabelPosition=bottom;verticalAlign=top;align=center;html=1;fontSize=12;fontStyle=0;aspect=fixed;shape=mxgraph.aws4.illustration_users;pointerEvents=1;spacingTop=2;spacingRight=0;perimeterSpacing=6;" parent="1" vertex="1">
          <mxGeometry x="690" y="395" width="70" height="70" as="geometry" />
        </mxCell>
        <mxCell id="nA5XWGOfh5RlGt8984BV-106" style="edgeStyle=orthogonalEdgeStyle;rounded=0;orthogonalLoop=1;jettySize=auto;html=1;strokeWidth=2;endArrow=none;startFill=0;strokeColor=#0000CC;" parent="1" source="nA5XWGOfh5RlGt8984BV-86" target="nA5XWGOfh5RlGt8984BV-105" edge="1">
          <mxGeometry relative="1" as="geometry" />
        </mxCell>
        <mxCell id="nA5XWGOfh5RlGt8984BV-107" value="" style="sketch=0;outlineConnect=0;gradientColor=none;fontColor=#545B64;strokeColor=none;fillColor=#000000;dashed=0;verticalLabelPosition=bottom;verticalAlign=top;align=center;html=1;fontSize=12;fontStyle=0;aspect=fixed;shape=mxgraph.aws4.illustration_users;pointerEvents=1;spacingTop=2;spacingRight=0;perimeterSpacing=6;" parent="1" vertex="1">
          <mxGeometry x="690" y="647" width="70" height="70" as="geometry" />
        </mxCell>
        <mxCell id="nA5XWGOfh5RlGt8984BV-108" style="edgeStyle=orthogonalEdgeStyle;rounded=0;orthogonalLoop=1;jettySize=auto;html=1;strokeWidth=2;endArrow=none;startFill=0;strokeColor=#0000CC;" parent="1" source="nA5XWGOfh5RlGt8984BV-95" target="nA5XWGOfh5RlGt8984BV-107" edge="1">
          <mxGeometry relative="1" as="geometry" />
        </mxCell>
        <mxCell id="nA5XWGOfh5RlGt8984BV-109" style="edgeStyle=orthogonalEdgeStyle;rounded=0;orthogonalLoop=1;jettySize=auto;html=1;endArrow=none;startFill=0;strokeWidth=2;strokeColor=#0000CC;" parent="1" source="nA5XWGOfh5RlGt8984BV-77" target="nA5XWGOfh5RlGt8984BV-103" edge="1">
          <mxGeometry relative="1" as="geometry" />
        </mxCell>
        <mxCell id="nA5XWGOfh5RlGt8984BV-110" style="edgeStyle=orthogonalEdgeStyle;rounded=0;orthogonalLoop=1;jettySize=auto;html=1;strokeColor=#0000CC;strokeWidth=2;endArrow=none;startFill=0;" parent="1" source="1lonX3dEKTjPdYe6L-kD-3" target="nA5XWGOfh5RlGt8984BV-86" edge="1">
          <mxGeometry relative="1" as="geometry">
            <Array as="points">
              <mxPoint x="470" y="420" />
              <mxPoint x="470" y="420" />
            </Array>
          </mxGeometry>
        </mxCell>
        <mxCell id="nA5XWGOfh5RlGt8984BV-111" style="edgeStyle=orthogonalEdgeStyle;rounded=1;orthogonalLoop=1;jettySize=auto;html=1;strokeWidth=2;strokeColor=#0000CC;endArrow=none;startFill=0;curved=0;" parent="1" source="1lonX3dEKTjPdYe6L-kD-3" target="nA5XWGOfh5RlGt8984BV-77" edge="1">
          <mxGeometry relative="1" as="geometry">
            <Array as="points">
              <mxPoint x="420" y="440" />
              <mxPoint x="420" y="670" />
            </Array>
          </mxGeometry>
        </mxCell>
        <mxCell id="nA5XWGOfh5RlGt8984BV-112" style="edgeStyle=orthogonalEdgeStyle;rounded=0;orthogonalLoop=1;jettySize=auto;html=1;endArrow=none;startFill=0;strokeWidth=2;strokeColor=#0000CC;" parent="1" source="nA5XWGOfh5RlGt8984BV-77" target="nA5XWGOfh5RlGt8984BV-95" edge="1">
          <mxGeometry relative="1" as="geometry">
            <Array as="points">
              <mxPoint x="480" y="690" />
              <mxPoint x="480" y="690" />
            </Array>
          </mxGeometry>
        </mxCell>
        <mxCell id="nA5XWGOfh5RlGt8984BV-113" style="edgeStyle=orthogonalEdgeStyle;rounded=1;orthogonalLoop=1;jettySize=auto;html=1;endArrow=none;startFill=0;strokeColor=#0000CC;strokeWidth=2;curved=0;" parent="1" source="nA5XWGOfh5RlGt8984BV-86" target="nA5XWGOfh5RlGt8984BV-95" edge="1">
          <mxGeometry relative="1" as="geometry">
            <Array as="points">
              <mxPoint x="530" y="440" />
              <mxPoint x="530" y="670" />
            </Array>
          </mxGeometry>
        </mxCell>
        <mxCell id="nA5XWGOfh5RlGt8984BV-114" style="edgeStyle=orthogonalEdgeStyle;rounded=1;orthogonalLoop=1;jettySize=auto;html=1;endArrow=none;startFill=0;strokeWidth=2;strokeColor=#009900;dashed=1;curved=0;dashPattern=1 1;" parent="1" source="1lonX3dEKTjPdYe6L-kD-3" target="nA5XWGOfh5RlGt8984BV-21" edge="1">
          <mxGeometry relative="1" as="geometry">
            <Array as="points">
              <mxPoint x="430" y="430" />
            </Array>
          </mxGeometry>
        </mxCell>
        <mxCell id="nA5XWGOfh5RlGt8984BV-115" style="edgeStyle=orthogonalEdgeStyle;rounded=1;orthogonalLoop=1;jettySize=auto;html=1;strokeWidth=2;endArrow=none;startFill=0;strokeColor=#009900;dashed=1;curved=0;dashPattern=1 1;" parent="1" source="nA5XWGOfh5RlGt8984BV-77" target="nA5XWGOfh5RlGt8984BV-21" edge="1">
          <mxGeometry relative="1" as="geometry">
            <Array as="points">
              <mxPoint x="460" y="682" />
            </Array>
          </mxGeometry>
        </mxCell>
        <mxCell id="nA5XWGOfh5RlGt8984BV-116" style="edgeStyle=orthogonalEdgeStyle;rounded=1;orthogonalLoop=1;jettySize=auto;html=1;endArrow=none;startFill=0;strokeWidth=2;strokeColor=#009900;dashed=1;curved=0;dashPattern=1 1;" parent="1" source="nA5XWGOfh5RlGt8984BV-86" target="nA5XWGOfh5RlGt8984BV-21" edge="1">
          <mxGeometry relative="1" as="geometry">
            <Array as="points">
              <mxPoint x="520" y="430" />
            </Array>
          </mxGeometry>
        </mxCell>
        <mxCell id="nA5XWGOfh5RlGt8984BV-117" style="edgeStyle=orthogonalEdgeStyle;rounded=1;orthogonalLoop=1;jettySize=auto;html=1;endArrow=none;startFill=0;strokeWidth=2;strokeColor=#009900;dashed=1;curved=0;dashPattern=1 1;" parent="1" source="nA5XWGOfh5RlGt8984BV-95" target="nA5XWGOfh5RlGt8984BV-21" edge="1">
          <mxGeometry relative="1" as="geometry">
            <Array as="points">
              <mxPoint x="490" y="682" />
            </Array>
          </mxGeometry>
        </mxCell>
        <mxCell id="nA5XWGOfh5RlGt8984BV-118" style="edgeStyle=orthogonalEdgeStyle;rounded=1;orthogonalLoop=1;jettySize=auto;html=1;strokeWidth=2;endArrow=none;startFill=0;strokeColor=#0000CC;curved=0;" parent="1" source="1lonX3dEKTjPdYe6L-kD-3" target="nA5XWGOfh5RlGt8984BV-77" edge="1">
          <mxGeometry relative="1" as="geometry">
            <Array as="points">
              <mxPoint x="440" y="410" />
              <mxPoint x="440" y="700" />
            </Array>
          </mxGeometry>
        </mxCell>
        <mxCell id="nA5XWGOfh5RlGt8984BV-119" style="edgeStyle=orthogonalEdgeStyle;rounded=1;orthogonalLoop=1;jettySize=auto;html=1;strokeWidth=2;endArrow=none;startFill=0;strokeColor=#0000CC;curved=0;" parent="1" source="nA5XWGOfh5RlGt8984BV-86" target="nA5XWGOfh5RlGt8984BV-95" edge="1">
          <mxGeometry relative="1" as="geometry">
            <Array as="points">
              <mxPoint x="510" y="410" />
              <mxPoint x="510" y="700" />
            </Array>
          </mxGeometry>
        </mxCell>
        <mxCell id="nA5XWGOfh5RlGt8984BV-153" value="&lt;font&gt;(a)&lt;/font&gt;" style="text;html=1;align=center;verticalAlign=middle;whiteSpace=wrap;rounded=0;fontSize=20;" parent="1" vertex="1">
          <mxGeometry x="440" y="830" width="60" height="30" as="geometry" />
        </mxCell>
        <mxCell id="nA5XWGOfh5RlGt8984BV-154" value="&lt;font&gt;(b)&lt;/font&gt;" style="text;html=1;align=center;verticalAlign=middle;whiteSpace=wrap;rounded=0;fontSize=20;" parent="1" vertex="1">
          <mxGeometry x="1170" y="830" width="60" height="30" as="geometry" />
        </mxCell>
        <mxCell id="nA5XWGOfh5RlGt8984BV-155" value="" style="group" parent="1" vertex="1" connectable="0">
          <mxGeometry x="830" y="250" width="914.53" height="510" as="geometry" />
        </mxCell>
        <mxCell id="1lonX3dEKTjPdYe6L-kD-49" value="" style="rounded=1;whiteSpace=wrap;html=1;fillColor=#fff2cc;strokeColor=#d6b656;" parent="nA5XWGOfh5RlGt8984BV-155" vertex="1">
          <mxGeometry x="20" y="231.81818181818178" width="788.1880861850443" height="278.1818181818182" as="geometry" />
        </mxCell>
        <mxCell id="nA5XWGOfh5RlGt8984BV-124" value="" style="rounded=0;whiteSpace=wrap;html=1;fillColor=none;strokeColor=#FF0080;strokeWidth=2;dashed=1;gradientColor=none;" parent="nA5XWGOfh5RlGt8984BV-155" vertex="1">
          <mxGeometry x="43.18200253485424" y="245.7272727272727" width="312.9570342205323" height="244.56818181818178" as="geometry" />
        </mxCell>
        <mxCell id="1lonX3dEKTjPdYe6L-kD-35" value="" style="rounded=1;whiteSpace=wrap;html=1;fillColor=#ffe6cc;strokeColor=#d79b00;" parent="nA5XWGOfh5RlGt8984BV-155" vertex="1">
          <mxGeometry x="54.77300380228136" y="263.1136363636364" width="289.775031685678" height="208.63636363636363" as="geometry" />
        </mxCell>
        <mxCell id="1lonX3dEKTjPdYe6L-kD-36" value="Latency Prober" style="rounded=0;whiteSpace=wrap;html=1;" parent="nA5XWGOfh5RlGt8984BV-155" vertex="1">
          <mxGeometry x="182.2740177439797" y="280.5" width="139.09201520912544" height="34.77272727272727" as="geometry" />
        </mxCell>
        <mxCell id="1lonX3dEKTjPdYe6L-kD-132" style="edgeStyle=orthogonalEdgeStyle;rounded=0;orthogonalLoop=1;jettySize=auto;html=1;endArrow=open;endFill=0;" parent="nA5XWGOfh5RlGt8984BV-155" source="1lonX3dEKTjPdYe6L-kD-37" target="1lonX3dEKTjPdYe6L-kD-44" edge="1">
          <mxGeometry relative="1" as="geometry" />
        </mxCell>
        <mxCell id="1lonX3dEKTjPdYe6L-kD-37" value="CPU Collector" style="rounded=0;whiteSpace=wrap;html=1;" parent="nA5XWGOfh5RlGt8984BV-155" vertex="1">
          <mxGeometry x="182.2740177439797" y="323.38636363636357" width="139.09201520912544" height="34.77272727272727" as="geometry" />
        </mxCell>
        <mxCell id="nA5XWGOfh5RlGt8984BV-147" style="edgeStyle=orthogonalEdgeStyle;rounded=1;orthogonalLoop=1;jettySize=auto;html=1;curved=0;strokeWidth=2;strokeColor=#009900;dashed=1;dashPattern=1 1;endArrow=none;startFill=0;" parent="nA5XWGOfh5RlGt8984BV-155" source="1lonX3dEKTjPdYe6L-kD-38" target="1lonX3dEKTjPdYe6L-kD-52" edge="1">
          <mxGeometry relative="1" as="geometry">
            <Array as="points">
              <mxPoint x="394.38934093789595" y="384.81818181818176" />
              <mxPoint x="394.38934093789595" y="394.09090909090907" />
            </Array>
          </mxGeometry>
        </mxCell>
        <mxCell id="1lonX3dEKTjPdYe6L-kD-38" value="Nftables Watcher" style="rounded=0;whiteSpace=wrap;html=1;" parent="nA5XWGOfh5RlGt8984BV-155" vertex="1">
          <mxGeometry x="182.2740177439797" y="367.4318181818182" width="139.09201520912544" height="34.77272727272727" as="geometry" />
        </mxCell>
        <mxCell id="1lonX3dEKTjPdYe6L-kD-48" style="edgeStyle=orthogonalEdgeStyle;rounded=1;orthogonalLoop=1;jettySize=auto;html=1;endArrow=open;startFill=0;strokeWidth=1;strokeColor=#000000;curved=0;startArrow=open;endFill=0;" parent="nA5XWGOfh5RlGt8984BV-155" source="1lonX3dEKTjPdYe6L-kD-40" target="1lonX3dEKTjPdYe6L-kD-44" edge="1">
          <mxGeometry relative="1" as="geometry" />
        </mxCell>
        <mxCell id="1lonX3dEKTjPdYe6L-kD-40" value="Nftables Reconciler" style="rounded=0;whiteSpace=wrap;html=1;" parent="nA5XWGOfh5RlGt8984BV-155" vertex="1">
          <mxGeometry x="182.2740177439797" y="413.7954545454545" width="139.09201520912544" height="34.77272727272727" as="geometry" />
        </mxCell>
        <mxCell id="1lonX3dEKTjPdYe6L-kD-44" value="&lt;font&gt;In-memory&lt;/font&gt;" style="shape=cylinder3;whiteSpace=wrap;html=1;boundedLbl=1;backgroundOutline=1;size=15;textDirection=ltr;fontSize=13;" parent="nA5XWGOfh5RlGt8984BV-155" vertex="1">
          <mxGeometry x="77.95500633713561" y="280.5" width="69.54600760456272" height="121.70454545454544" as="geometry" />
        </mxCell>
        <mxCell id="1lonX3dEKTjPdYe6L-kD-130" style="edgeStyle=orthogonalEdgeStyle;rounded=1;orthogonalLoop=1;jettySize=auto;html=1;entryX=0.993;entryY=0.583;entryDx=0;entryDy=0;entryPerimeter=0;curved=0;endArrow=open;endFill=0;" parent="nA5XWGOfh5RlGt8984BV-155" source="1lonX3dEKTjPdYe6L-kD-38" target="1lonX3dEKTjPdYe6L-kD-44" edge="1">
          <mxGeometry relative="1" as="geometry">
            <Array as="points">
              <mxPoint x="170.68301647655258" y="384.81818181818176" />
              <mxPoint x="170.68301647655258" y="351.2045454545454" />
            </Array>
          </mxGeometry>
        </mxCell>
        <mxCell id="1lonX3dEKTjPdYe6L-kD-133" style="edgeStyle=orthogonalEdgeStyle;rounded=1;orthogonalLoop=1;jettySize=auto;html=1;entryX=0.99;entryY=0.413;entryDx=0;entryDy=0;entryPerimeter=0;endArrow=open;endFill=0;curved=0;" parent="nA5XWGOfh5RlGt8984BV-155" source="1lonX3dEKTjPdYe6L-kD-36" target="1lonX3dEKTjPdYe6L-kD-44" edge="1">
          <mxGeometry relative="1" as="geometry">
            <Array as="points">
              <mxPoint x="170.68301647655258" y="297.88636363636357" />
              <mxPoint x="170.68301647655258" y="330.34090909090907" />
            </Array>
          </mxGeometry>
        </mxCell>
        <mxCell id="nA5XWGOfh5RlGt8984BV-126" value="" style="rounded=0;whiteSpace=wrap;html=1;fillColor=none;strokeColor=#009999;strokeWidth=2;gradientColor=none;" parent="nA5XWGOfh5RlGt8984BV-155" vertex="1">
          <mxGeometry x="23.18200253485424" width="405.68504435994925" height="194.7272727272727" as="geometry" />
        </mxCell>
        <mxCell id="nA5XWGOfh5RlGt8984BV-127" value="" style="rounded=0;whiteSpace=wrap;html=1;fillColor=none;strokeColor=#009999;strokeWidth=2;gradientColor=none;" parent="nA5XWGOfh5RlGt8984BV-155" vertex="1">
          <mxGeometry x="454.66254752851705" y="263.1136363636364" width="144.887515842839" height="212.11363636363635" as="geometry" />
        </mxCell>
        <mxCell id="1lonX3dEKTjPdYe6L-kD-51" value="kube-proxy" style="rounded=0;whiteSpace=wrap;html=1;" parent="nA5XWGOfh5RlGt8984BV-155" vertex="1">
          <mxGeometry x="467.70242395437253" y="275.8636363636364" width="113.01226235741443" height="34.77272727272727" as="geometry" />
        </mxCell>
        <mxCell id="nA5XWGOfh5RlGt8984BV-145" style="edgeStyle=orthogonalEdgeStyle;rounded=1;orthogonalLoop=1;jettySize=auto;html=1;strokeWidth=2;endArrow=none;startFill=0;dashed=1;curved=0;strokeColor=#FF0000;dashPattern=1 1;" parent="nA5XWGOfh5RlGt8984BV-155" source="1lonX3dEKTjPdYe6L-kD-52" target="nA5XWGOfh5RlGt8984BV-140" edge="1">
          <mxGeometry relative="1" as="geometry">
            <mxPoint x="414.09404309252216" y="393.51136363636357" as="targetPoint" />
            <Array as="points">
              <mxPoint x="414.09404309252216" y="382.5" />
              <mxPoint x="414.09404309252216" y="347.7272727272727" />
            </Array>
          </mxGeometry>
        </mxCell>
        <mxCell id="1lonX3dEKTjPdYe6L-kD-52" value="Nftables" style="rounded=0;whiteSpace=wrap;html=1;" parent="nA5XWGOfh5RlGt8984BV-155" vertex="1">
          <mxGeometry x="467.70242395437253" y="370.9090909090909" width="113.01226235741443" height="45.204545454545446" as="geometry" />
        </mxCell>
        <mxCell id="1lonX3dEKTjPdYe6L-kD-102" value="Metrics API" style="rounded=0;whiteSpace=wrap;html=1;" parent="nA5XWGOfh5RlGt8984BV-155" vertex="1">
          <mxGeometry x="467.70242395437253" y="426.5454545454545" width="113.01226235741443" height="34.77272727272727" as="geometry" />
        </mxCell>
        <mxCell id="1lonX3dEKTjPdYe6L-kD-34" value="" style="rounded=1;whiteSpace=wrap;html=1;fillColor=#0050ef;fontColor=#ffffff;strokeColor=#001DBC;" parent="nA5XWGOfh5RlGt8984BV-155" vertex="1">
          <mxGeometry x="34.77300380228136" y="19.125" width="382.503041825095" height="156.4772727272727" as="geometry" />
        </mxCell>
        <mxCell id="nA5XWGOfh5RlGt8984BV-141" style="edgeStyle=orthogonalEdgeStyle;rounded=1;orthogonalLoop=1;jettySize=auto;html=1;curved=0;strokeWidth=2;endArrow=none;startFill=0;dashed=1;strokeColor=#009900;dashPattern=1 1;" parent="nA5XWGOfh5RlGt8984BV-155" source="1lonX3dEKTjPdYe6L-kD-51" target="1lonX3dEKTjPdYe6L-kD-66" edge="1">
          <mxGeometry relative="1" as="geometry">
            <Array as="points">
              <mxPoint x="405.68504435994925" y="293.25" />
              <mxPoint x="405.68504435994925" y="208.63636363636363" />
              <mxPoint x="226.02452471482886" y="208.63636363636363" />
            </Array>
          </mxGeometry>
        </mxCell>
        <mxCell id="1lonX3dEKTjPdYe6L-kD-66" value="API Server" style="rounded=0;whiteSpace=wrap;html=1;" parent="nA5XWGOfh5RlGt8984BV-155" vertex="1">
          <mxGeometry x="57.95500633713561" y="117.64772727272727" width="336.1390367553865" height="40.56818181818181" as="geometry" />
        </mxCell>
        <mxCell id="1lonX3dEKTjPdYe6L-kD-107" value="Scheduler" style="rounded=0;whiteSpace=wrap;html=1;" parent="nA5XWGOfh5RlGt8984BV-155" vertex="1">
          <mxGeometry x="243.41102661596952" y="56.79545454545455" width="150.68301647655258" height="40.56818181818181" as="geometry" />
        </mxCell>
        <mxCell id="nA5XWGOfh5RlGt8984BV-125" value="&lt;font style=&quot;font-size: 10px;&quot;&gt;etcd&lt;/font&gt;" style="shape=cylinder3;whiteSpace=wrap;html=1;boundedLbl=1;backgroundOutline=1;size=15;textDirection=ltr;" parent="nA5XWGOfh5RlGt8984BV-155" vertex="1">
          <mxGeometry x="81.13700887198985" y="39.40909090909091" width="115.91001267427121" height="63.74999999999999" as="geometry" />
        </mxCell>
        <mxCell id="nA5XWGOfh5RlGt8984BV-128" value="" style="rounded=0;whiteSpace=wrap;html=1;fillColor=none;strokeColor=#FF0080;strokeWidth=2;dashed=1;gradientColor=none;" parent="nA5XWGOfh5RlGt8984BV-155" vertex="1">
          <mxGeometry x="645.9140684410646" y="266.59090909090907" width="139.09201520912544" height="119.38636363636363" as="geometry" />
        </mxCell>
        <mxCell id="nA5XWGOfh5RlGt8984BV-129" value="" style="endArrow=none;html=1;rounded=0;strokeWidth=2;strokeColor=#0000CC;" parent="nA5XWGOfh5RlGt8984BV-155" edge="1">
          <mxGeometry width="50" height="50" relative="1" as="geometry">
            <mxPoint x="475.231051964512" y="17.18931818181823" as="sourcePoint" />
            <mxPoint x="521.5950570342204" y="17.18931818181823" as="targetPoint" />
          </mxGeometry>
        </mxCell>
        <mxCell id="nA5XWGOfh5RlGt8984BV-130" value="Data Path" style="text;html=1;align=left;verticalAlign=middle;whiteSpace=wrap;rounded=0;" parent="nA5XWGOfh5RlGt8984BV-155" vertex="1">
          <mxGeometry x="538.6917839036754" width="127.50101394169833" height="34.77272727272727" as="geometry" />
        </mxCell>
        <mxCell id="nA5XWGOfh5RlGt8984BV-131" value="" style="endArrow=none;html=1;rounded=0;strokeWidth=2;strokeColor=#FF0000;dashed=1;dashPattern=1 2;edgeStyle=orthogonalEdgeStyle;" parent="nA5XWGOfh5RlGt8984BV-155" edge="1">
          <mxGeometry width="50" height="50" relative="1" as="geometry">
            <mxPoint x="475.231051964512" y="51.9620454545455" as="sourcePoint" />
            <mxPoint x="521.5950570342204" y="51.9620454545455" as="targetPoint" />
          </mxGeometry>
        </mxCell>
        <mxCell id="nA5XWGOfh5RlGt8984BV-132" value="Control Path" style="text;html=1;align=left;verticalAlign=middle;whiteSpace=wrap;rounded=0;" parent="nA5XWGOfh5RlGt8984BV-155" vertex="1">
          <mxGeometry x="538.6917839036754" y="34.77272727272727" width="127.50101394169833" height="34.77272727272727" as="geometry" />
        </mxCell>
        <mxCell id="nA5XWGOfh5RlGt8984BV-133" value="Management Path" style="text;html=1;align=left;verticalAlign=middle;whiteSpace=wrap;rounded=0;" parent="nA5XWGOfh5RlGt8984BV-155" vertex="1">
          <mxGeometry x="538.6917839036754" y="69.54545454545455" width="127.50101394169833" height="34.77272727272727" as="geometry" />
        </mxCell>
        <mxCell id="nA5XWGOfh5RlGt8984BV-134" value="" style="endArrow=none;html=1;rounded=0;strokeWidth=2;strokeColor=#00CC00;endFill=1;startArrow=none;startFill=0;dashed=1;dashPattern=1 1;" parent="nA5XWGOfh5RlGt8984BV-155" edge="1">
          <mxGeometry width="50" height="50" relative="1" as="geometry">
            <mxPoint x="475.231051964512" y="86.70000000000007" as="sourcePoint" />
            <mxPoint x="521.5950570342204" y="86.70000000000007" as="targetPoint" />
          </mxGeometry>
        </mxCell>
        <mxCell id="nA5XWGOfh5RlGt8984BV-135" value="" style="rounded=0;whiteSpace=wrap;html=1;fillColor=none;strokeColor=#009999;strokeWidth=2;gradientColor=none;" parent="nA5XWGOfh5RlGt8984BV-155" vertex="1">
          <mxGeometry x="475.231051964512" y="113.01136363636363" width="46.36400506970848" height="17.386363636363637" as="geometry" />
        </mxCell>
        <mxCell id="nA5XWGOfh5RlGt8984BV-136" value="Developed by Open Source" style="text;html=1;align=left;verticalAlign=middle;whiteSpace=wrap;rounded=0;" parent="nA5XWGOfh5RlGt8984BV-155" vertex="1">
          <mxGeometry x="538.6917839036754" y="104.31818181818181" width="179.95029467680607" height="34.77272727272727" as="geometry" />
        </mxCell>
        <mxCell id="nA5XWGOfh5RlGt8984BV-137" value="" style="rounded=0;whiteSpace=wrap;html=1;fillColor=none;strokeColor=#FF0080;strokeWidth=2;dashed=1;gradientColor=none;" parent="nA5XWGOfh5RlGt8984BV-155" vertex="1">
          <mxGeometry x="475.231051964512" y="147.7840909090909" width="46.36400506970848" height="17.386363636363637" as="geometry" />
        </mxCell>
        <mxCell id="nA5XWGOfh5RlGt8984BV-138" value="Developed by Author" style="text;html=1;align=left;verticalAlign=middle;whiteSpace=wrap;rounded=0;" parent="nA5XWGOfh5RlGt8984BV-155" vertex="1">
          <mxGeometry x="538.6917839036754" y="139.0909090909091" width="179.95029467680607" height="34.77272727272727" as="geometry" />
        </mxCell>
        <mxCell id="nA5XWGOfh5RlGt8984BV-142" style="edgeStyle=orthogonalEdgeStyle;rounded=1;orthogonalLoop=1;jettySize=auto;html=1;strokeWidth=2;curved=0;endArrow=none;startFill=0;strokeColor=#009900;dashed=1;dashPattern=1 1;" parent="nA5XWGOfh5RlGt8984BV-155" source="nA5XWGOfh5RlGt8984BV-140" target="1lonX3dEKTjPdYe6L-kD-66" edge="1">
          <mxGeometry relative="1" as="geometry">
            <Array as="points">
              <mxPoint x="394.09404309252216" y="336.13636363636357" />
              <mxPoint x="394.09404309252216" y="220.2272727272727" />
              <mxPoint x="208.63802281368817" y="220.2272727272727" />
            </Array>
          </mxGeometry>
        </mxCell>
        <mxCell id="nA5XWGOfh5RlGt8984BV-140" value="kubelet" style="rounded=0;whiteSpace=wrap;html=1;" parent="nA5XWGOfh5RlGt8984BV-155" vertex="1">
          <mxGeometry x="467.70242395437253" y="323.38636363636357" width="113.01226235741443" height="34.77272727272727" as="geometry" />
        </mxCell>
        <mxCell id="nA5XWGOfh5RlGt8984BV-146" style="edgeStyle=orthogonalEdgeStyle;rounded=1;orthogonalLoop=1;jettySize=auto;html=1;strokeColor=#FF0000;curved=0;dashed=1;strokeWidth=2;endArrow=none;startFill=0;dashPattern=1 1;" parent="nA5XWGOfh5RlGt8984BV-155" source="1lonX3dEKTjPdYe6L-kD-40" target="1lonX3dEKTjPdYe6L-kD-52" edge="1">
          <mxGeometry relative="1" as="geometry">
            <Array as="points">
              <mxPoint x="394.38934093789595" y="431.1818181818182" />
              <mxPoint x="394.38934093789595" y="405.6818181818182" />
            </Array>
          </mxGeometry>
        </mxCell>
        <mxCell id="nA5XWGOfh5RlGt8984BV-120" value="" style="group;flipH=1;" parent="nA5XWGOfh5RlGt8984BV-155" vertex="1" connectable="0">
          <mxGeometry x="657.5050697084916" y="278.1818181818182" width="115.91001267427121" height="92.72727272727272" as="geometry" />
        </mxCell>
        <mxCell id="nA5XWGOfh5RlGt8984BV-121" value="" style="rounded=1;whiteSpace=wrap;html=1;fontSize=14;fillColor=#dae8fc;strokeColor=#6c8ebf;" parent="nA5XWGOfh5RlGt8984BV-120" vertex="1">
          <mxGeometry x="23.18200253485424" width="92.72801013941697" height="69.54545454545455" as="geometry" />
        </mxCell>
        <mxCell id="nA5XWGOfh5RlGt8984BV-122" value="" style="rounded=1;whiteSpace=wrap;html=1;fontSize=14;fillColor=#dae8fc;strokeColor=#6c8ebf;" parent="nA5XWGOfh5RlGt8984BV-120" vertex="1">
          <mxGeometry x="11.59100126742712" y="11.59090909090909" width="92.72801013941697" height="69.54545454545455" as="geometry" />
        </mxCell>
        <mxCell id="nA5XWGOfh5RlGt8984BV-123" value="Application" style="rounded=1;whiteSpace=wrap;html=1;fontSize=14;fillColor=#dae8fc;strokeColor=#6c8ebf;" parent="nA5XWGOfh5RlGt8984BV-120" vertex="1">
          <mxGeometry y="23.18181818181818" width="92.72801013941697" height="69.54545454545455" as="geometry" />
        </mxCell>
        <mxCell id="nA5XWGOfh5RlGt8984BV-151" style="edgeStyle=orthogonalEdgeStyle;rounded=1;orthogonalLoop=1;jettySize=auto;html=1;endArrow=none;startFill=0;strokeWidth=2;strokeColor=#0000CC;entryX=1;entryY=0.75;entryDx=0;entryDy=0;curved=0;" parent="nA5XWGOfh5RlGt8984BV-155" source="nA5XWGOfh5RlGt8984BV-149" target="1lonX3dEKTjPdYe6L-kD-52" edge="1">
          <mxGeometry relative="1" as="geometry">
            <Array as="points">
              <mxPoint x="889.3250950570341" y="452.0454545454545" />
              <mxPoint x="622.7320659062103" y="452.0454545454545" />
              <mxPoint x="622.7320659062103" y="404.52272727272725" />
            </Array>
          </mxGeometry>
        </mxCell>
        <mxCell id="nA5XWGOfh5RlGt8984BV-149" value="" style="sketch=0;outlineConnect=0;gradientColor=none;fontColor=#545B64;strokeColor=none;fillColor=#000000;dashed=0;verticalLabelPosition=bottom;verticalAlign=top;align=center;html=1;fontSize=12;fontStyle=0;aspect=fixed;shape=mxgraph.aws4.illustration_users;pointerEvents=1;spacingTop=2;spacingRight=0;perimeterSpacing=6;" parent="nA5XWGOfh5RlGt8984BV-155" vertex="1">
          <mxGeometry x="842.9610899873256" y="324.5454545454545" width="91.56818181818181" height="91.56818181818181" as="geometry" />
        </mxCell>
        <mxCell id="nA5XWGOfh5RlGt8984BV-152" style="edgeStyle=orthogonalEdgeStyle;rounded=1;orthogonalLoop=1;jettySize=auto;html=1;curved=0;endArrow=none;startFill=0;strokeWidth=2;strokeColor=#0000CC;" parent="nA5XWGOfh5RlGt8984BV-155" source="1lonX3dEKTjPdYe6L-kD-52" target="nA5XWGOfh5RlGt8984BV-123" edge="1">
          <mxGeometry relative="1" as="geometry" />
        </mxCell>
      </root>
    </mxGraphModel>
  </diagram>
</mxfile>
